<svg width="148" height="148" viewBox="0 0 148 148" fill="none" xmlns="http://www.w3.org/2000/svg">
<path d="M136.672 57.909C135.163 51.9915 132.821 46.344 129.694 41.0784L137.561 33.2111L114.997 10.6463L107.13 18.5136C102.155 15.5605 96.8264 13.3034 91.2521 11.7885C88.5279 5.12504 81.978 0.416016 74.3457 0.416016C66.7139 0.416016 60.1647 5.12418 57.4399 11.7871C51.8641 13.3016 46.5331 15.5593 41.5572 18.5136L33.6896 10.6463L11.1251 33.2111L18.9921 41.0784C15.8654 46.344 13.5237 51.9915 12.0142 57.909H0.894531V89.8204H12.014C13.5237 95.7379 15.8651 101.385 18.9919 106.651L11.1248 114.518L33.6893 137.083L41.5569 129.216C45.9222 131.807 50.5722 133.864 55.4189 135.354V147.292H93.2719V135.353C98.1172 133.863 102.765 131.806 107.129 129.216L114.997 137.083L137.561 114.519L129.694 106.651C132.821 101.385 135.163 95.7379 136.672 89.8207H147.792V89.8204V57.909H136.672ZM88.8776 29.7137C88.9906 29.5651 89.0999 29.4133 89.2087 29.2612C89.2807 29.1605 89.3541 29.061 89.4242 28.9585C89.5401 28.7893 89.6505 28.616 89.761 28.4427C89.8101 28.3655 89.8626 28.2909 89.9105 28.2131C109.488 34.8714 122.563 53.0766 122.563 73.8649C122.563 82.3459 120.409 90.4634 116.287 97.6817V93.8589H106.386V93.8587V86.8268H106.386H105.514V48.8155C105.514 39.8915 98.2535 32.631 89.3295 32.631H86.1078C86.1766 32.5727 86.2415 32.5105 86.3095 32.4514C86.4521 32.3274 86.5941 32.2026 86.733 32.0744C86.8271 31.9871 86.9192 31.8979 87.0115 31.8087C87.1427 31.6822 87.2723 31.5548 87.3997 31.4245C87.4915 31.3307 87.5816 31.2354 87.6714 31.1396C87.7945 31.0082 87.9153 30.8751 88.0344 30.7399C88.1216 30.6412 88.2082 30.542 88.2932 30.441C88.4099 30.3027 88.5238 30.1621 88.6366 30.0204C88.7175 29.9185 88.799 29.8172 88.8776 29.7137ZM60.4062 18.0216C60.4094 17.955 60.4143 17.8887 60.4183 17.8225C60.4272 17.6747 60.4384 17.5278 60.4519 17.3815C60.4596 17.298 60.4676 17.2148 60.4771 17.1316C60.4912 17.0033 60.5081 16.876 60.5259 16.7486C60.5382 16.6591 60.5497 16.5693 60.564 16.48C60.5844 16.3512 60.6088 16.2232 60.6329 16.0956C60.6662 15.9183 60.7032 15.7418 60.7436 15.5656C60.7634 15.4793 60.7821 15.3924 60.8036 15.3066C60.8329 15.1886 60.8653 15.0716 60.8977 14.9542C60.9209 14.8708 60.9442 14.7875 60.9689 14.7046C61.0021 14.5927 61.0369 14.4811 61.0727 14.3701C62.8926 8.77538 68.1531 4.71993 74.3457 4.71993C80.5354 4.71993 85.7942 8.77223 87.6158 14.3624C87.6534 14.4783 87.6895 14.5947 87.7242 14.7115C87.7472 14.7887 87.769 14.8667 87.7905 14.9445C87.8244 15.0664 87.8579 15.1884 87.8883 15.3109C87.9073 15.3866 87.9236 15.4632 87.9411 15.5395C87.9876 15.7404 88.0292 15.9421 88.0665 16.1446C88.0866 16.2542 88.1078 16.3635 88.1256 16.474C88.1408 16.5698 88.1532 16.6662 88.1664 16.7626C88.1827 16.8823 88.1988 17.0019 88.2123 17.1224C88.2223 17.2119 88.2312 17.3014 88.2392 17.3912C88.2518 17.529 88.2622 17.6672 88.2708 17.8058C88.2754 17.8801 88.2808 17.9544 88.2843 18.0288C88.294 18.2434 88.3006 18.4588 88.3006 18.676C88.3006 26.3712 82.0403 32.6315 74.3451 32.6315C66.6499 32.6315 60.3896 26.3712 60.3896 18.676C60.3896 18.4565 60.3962 18.2385 60.4062 18.0216ZM80.2758 36.9343L74.3457 49.0212L68.4156 36.9343H80.2758ZM58.7803 28.2126C58.8343 28.3004 58.8937 28.3847 58.9493 28.4716C59.0526 28.6332 59.1556 28.795 59.2635 28.9531C59.3384 29.0627 59.417 29.1694 59.4942 29.277C59.5977 29.4216 59.7016 29.5662 59.8092 29.7076C59.8921 29.8167 59.9779 29.9237 60.0631 30.0307C60.1713 30.1667 60.2806 30.3015 60.3925 30.4341C60.4817 30.5397 60.5724 30.6435 60.6636 30.7471C60.7784 30.8771 60.8946 31.005 61.013 31.1316C61.1069 31.232 61.2013 31.3316 61.2974 31.4297C61.4199 31.5551 61.545 31.6778 61.6712 31.7998C61.7679 31.893 61.8643 31.9866 61.963 32.0778C62.0967 32.2015 62.2338 32.3214 62.3713 32.4413C62.4427 32.5036 62.5113 32.5693 62.5836 32.6304H59.3616C51.832 32.6304 45.4867 37.7993 43.6875 44.7752C43.3544 46.0669 43.1771 47.4208 43.1771 48.8152V91.1304H55.4192V118.229C37.7892 110.7 26.1233 93.2037 26.1233 73.8646C26.1233 53.0393 39.1891 34.8677 58.7803 28.2126ZM55.4195 130.839C50.8456 129.32 46.4711 127.253 42.3818 124.675L40.928 123.759L33.6896 130.997L17.211 114.518L24.4491 107.28L23.5328 105.826C19.9051 100.072 17.3057 93.803 15.8075 87.1929L15.4276 85.5168H5.19816V62.2127H15.4273L15.8072 60.5365C17.306 53.9262 19.9048 47.6572 23.5325 41.903L24.4489 40.4492L17.211 33.2111L33.6896 16.7325L40.928 23.9706L42.3818 23.0542C46.7118 20.3246 51.3471 18.1728 56.2004 16.6361C56.1979 16.6591 56.1973 16.682 56.1947 16.705C56.1697 16.9359 56.1522 17.1689 56.1362 17.4021C56.1293 17.4994 56.1192 17.5961 56.1138 17.6936C56.0983 17.9826 56.0911 18.2735 56.0894 18.5658C56.0891 18.6026 56.0863 18.639 56.0863 18.6757C56.0863 18.7093 56.0888 18.7423 56.0891 18.7759C56.0908 19.0731 56.0983 19.3689 56.1141 19.6627C56.1207 19.7846 56.133 19.9048 56.1419 20.0262C56.1571 20.2319 56.172 20.4379 56.1941 20.6416C56.2088 20.7782 56.2283 20.913 56.2461 21.0487C56.2704 21.2352 56.2951 21.4214 56.325 21.6059C56.3476 21.7465 56.374 21.8859 56.4001 22.0254C56.4331 22.2027 56.4676 22.3794 56.5057 22.555C56.5361 22.6956 56.5688 22.835 56.6027 22.9742C56.6446 23.1466 56.6885 23.3176 56.7352 23.488C56.7731 23.6261 56.8116 23.7635 56.8526 23.9003C56.891 24.0292 56.9309 24.1574 56.9722 24.2851C47.2262 27.7093 38.5171 34.0847 32.2892 42.3936C25.4401 51.5316 21.8199 62.4144 21.8199 73.8652C21.8199 84.8776 25.1914 95.42 31.5694 104.353C37.5896 112.785 45.8184 119.169 55.4195 122.875V130.839ZM72.1939 142.989H59.7228V51.6005H55.4192V86.8268H47.4807V48.8155C47.4807 42.2645 52.8106 36.9346 59.3619 36.9346H63.6216L72.1939 54.4062V58.692H76.4975V54.4062L85.0697 36.9346H89.3295C95.8808 36.9346 101.21 42.2645 101.21 48.8155V86.8271H93.2722V51.6005H88.9686V86.8268H88.0961V93.8587H78.4952V98.9105H67.4699V103.214H72.1939V142.989ZM102.083 91.1304V93.8587H92.3997V91.1304H102.083ZM88.9686 142.989H76.4975V103.214H78.4952V124.451H88.9683V136.58H88.9686V142.989ZM106.305 124.675C102.217 127.253 97.8438 129.319 93.2719 130.837V124.451H106.66L106.305 124.675ZM82.7989 120.148V98.1626H111.984L111.983 120.148H82.7989ZM143.488 85.5177H133.259L132.879 87.1929C131.38 93.803 128.781 100.072 125.153 105.826L124.237 107.28L131.475 114.518L114.997 130.997L108.451 124.451H116.287V105.479C123.209 96.3143 126.867 85.398 126.867 73.8649C126.867 62.4671 123.277 51.6255 116.486 42.5118C110.255 34.1499 101.508 27.7268 91.7186 24.2877C91.761 24.1563 91.8021 24.0243 91.8416 23.8914C91.8807 23.7612 91.9174 23.6301 91.9535 23.4984C92.0023 23.3211 92.0482 23.1426 92.0915 22.9633C92.1237 22.8305 92.155 22.6976 92.1839 22.5636C92.2238 22.3806 92.2597 22.1961 92.2941 22.011C92.3188 21.8788 92.3437 21.7465 92.3653 21.6134C92.3968 21.4197 92.4226 21.2246 92.4482 21.029C92.4645 20.9021 92.4829 20.7759 92.4967 20.6482C92.5202 20.4313 92.5365 20.2121 92.552 19.9932C92.5598 19.8848 92.571 19.7775 92.5767 19.6687C92.5945 19.3399 92.6045 19.0091 92.6045 18.676C92.6045 18.3446 92.5945 18.0156 92.577 17.6885C92.5724 17.6047 92.5635 17.5215 92.5578 17.438C92.5411 17.1916 92.5222 16.9457 92.4961 16.7021C92.4938 16.6811 92.4932 16.6596 92.4906 16.6387C97.3426 18.1751 101.976 20.3263 106.305 23.0551L107.758 23.9715L114.996 16.7334L131.475 33.2119L124.237 40.4501L125.153 41.9038C128.781 47.6581 131.38 53.927 132.878 60.5374L133.258 62.2135H143.488V85.5177Z" fill="#1C75BC"/>
</svg>
